#!OML:ASF X:\für Bonn\!DataBase\2005_08_12_Daniel\c3d\Daniel.ASF
:FULLY-SPECIFIED
:DEGREES
32
root 2.90518 17.6239 17.6008 -5.07499 10.9243 0.823687
lowerback 5.32395 -1.8296 -0.7326
upperback 1.52596 -2.51936 -2.72792
thorax -1.50457 -1.25502 -2.22798
lowerneck 1.77636 -1.03397 -0.90813
upperneck 9.26803 -1.39115 0.279055
head 2.63081 -0.711556 0.218943
rclavicle 2.12187e-014 3.97569e-015
rhumerus -22.2242 4.24982 -84.327
rradius 102.867
rwrist 3.48132
rhand -39.0198 18.9827
rfingers 7.12502
rthumb -12.0227 -10.652
lclavicle 2.12187e-014 3.97569e-015
lhumerus -40.7736 42.9839 62.0164
lradius 19.2504
lwrist -37.7964
lhand -10.7372 -5.79369
lfingers 7.12502
lthumb 15.2737 23.6224
rfemur 6.67945 20.0474 20.7738
rtibia 17.6551
rfoot -27.1183 -26.2122
rtoes -11.3664
lfemur 0.476597 -18.1192 -21.2945
ltibia 26.9957
lfoot -22.0838 8.38453
ltoes -13.7173
33
root 2.90413 17.6239 17.6002 -5.08595 10.9483 0.809763
lowerback 5.31472 -1.77786 -0.687491
upperback 1.50948 -2.44909 -2.77229
thorax -1.51778 -1.2201 -2.30373
lowerneck 1.77338 -1.08627 -0.917027
upperneck 9.31046 -1.4664 0.351529
head 2.64694 -0.747236 0.242087
rclavicle -2.23788e-014 -1.90833e-014
rhumerus -20.9459 4.36868 -83.8878
rradius 102.844
rwrist 3.5416
rhand -38.8604 18.3284
rfingers 7.12502
rthumb -11.869 -11.3152
lclavicle -2.23788e-014 -1.90833e-014
lhumerus -40.8643 43.1775 61.7702
lradius 19.1615
lwrist -38.0815
lhand -10.756 -5.78894
lfingers 7.12502
lthumb 15.2556 23.6285
rfemur 6.69382 20.0639 20.7988
rtibia 17.6485
rfoot -27.1532 -26.2309
rtoes -11.3054
lfemur 0.471165 -18.148 -21.2805
ltibia 27.0031
lfoot -22.078 8.38662
ltoes -13.719
34
root 2.90254 17.6242 17.5995 -5.10022 10.9873 0.809204
lowerback 5.31727 -1.72646 -0.660248
upperback 1.49041 -2.38055 -2.81778
thorax -1.53938 -1.18604 -2.37012
lowerneck 1.79527 -1.14443 -0.920793
upperneck 9.33672 -1.54801 0.401063
head 2.65298 -0.786528 0.257104
rclavicle 2.89791e-014 3.18055e-015
rhumerus -19.6668 4.44785 -83.4324
rradius 102.797
rwrist 3.59747
rhand -38.6806 17.7679
rfingers 7.12502
rthumb -11.6957 -11.8856
lclavicle 2.89791e-014 3.18055e-015
lhumerus -40.9457 43.3398 61.5521
lradius 19.0838
lwrist -38.3541
lhand -10.7796 -5.80402
lfingers 7.12502
lthumb 15.2328 23.6152
rfemur 6.71108 20.0197 20.8038
rtibia 17.6473
rfoot -27.152 -26.2276
rtoes -11.3059
lfemur 0.467992 -18.1228 -21.2684
ltibia 27.0088
lfoot -22.0599 8.33794
ltoes -13.773
35
root 2.90125 17.6243 17.5989 -5.0996 11.0068 0.810846
lowerback 5.29392 -1.66696 -0.636088
upperback 1.47887 -2.30049 -2.85857
thorax -1.53784 -1.14616 -2.43167
lowerneck 1.79576 -1.19681 -0.955425
upperneck 9.36319 -1.62406 0.48437
head 2.6637 -0.823119 0.288127
rclavicle -1.72197e-014 2.38542e-015
rhumerus -18.3415 4.50606 -82.9688
rradius 102.671
rwrist 3.69937
rhand -38.5259 17.3117
rfingers 7.12502
rthumb -11.5465 -12.3502
lclavicle -1.72197e-014 2.38542e-015
lhumerus -40.9701 43.4518 61.4086
lradius 19.0172
lwrist -38.4937
lhand -10.7719 -5.79021
lfingers 7.12502
lthumb 15.2403 23.6284
rfemur 6.70777 19.9791 20.7904
rtibia 17.6403
rfoot -27.1499 -26.1937
rtoes -11.2744
lfemur 0.458908 -18.1401 -21.2667
ltibia 27.0163
lfoot -22.0595 8.33398
ltoes -13.7733
36
root 2.89945 17.6242 17.5981 -5.10541 11.043 0.820594
lowerback 5.29696 -1.6123 -0.613787
upperback 1.4551 -2.22802 -2.90417
thorax -1.56385 -1.11018 -2.49567
lowerneck 1.80418 -1.25483 -0.984725
upperneck 9.41287 -1.70668 0.552267
head 2.68073 -0.863237 0.313214
rclavicle 1.33869e-015 -1.90833e-014
rhumerus -17.0324 4.52117 -82.5132
rradius 102.502
rwrist 3.84478
rhand -38.3511 16.8362
rfingers 7.12502
rthumb -11.3779 -12.8352
lclavicle 1.33869e-015 -1.90833e-014
lhumerus -41.0544 43.5948 61.1929
lradius 18.9502
lwrist -38.7154
lhand -10.7568 -5.81669
lfingers 7.12502
lthumb 15.2547 23.6008
rfemur 6.71223 19.9241 20.7776
rtibia 17.6421
rfoot -27.1398 -26.1777
rtoes -11.2779
lfemur 0.454861 -18.1615 -21.2721
ltibia 27.0198
lfoot -22.0518 8.31834
ltoes -13.7744
37
root 2.89848 17.6239 17.5973 -5.13101 11.0697 0.808235
lowerback 5.30207 -1.5463 -0.537169
upperback 1.45052 -2.13734 -2.96614
thorax -1.57297 -1.06514 -2.60866
lowerneck 1.81463 -1.3204 -0.991705
upperneck 9.4241 -1.80087 0.637661
head 2.68463 -0.907837 0.339967
rclavicle -1.15513e-014 -4.45278e-014
rhumerus -15.6854 4.47684 -82.0677
rradius 102.278
rwrist 3.96818
rhand -38.1725 16.4231
rfingers 7.12502
rthumb -11.2057 -13.2577
lclavicle -1.15513e-014 -4.45278e-014
lhumerus -41.0677 43.7312 61.0013
lradius 18.8724
lwrist -38.9595
lhand -10.7546 -5.78387
lfingers 7.12502
lthumb 15.2569 23.6335
rfemur 6.72312 19.8267 20.7777
rtibia 17.6526
rfoot -27.0949 -26.121
rtoes -11.2418
lfemur 0.471613 -18.1871 -21.2649
ltibia 27.0184
lfoot -22.0431 8.31582
ltoes -13.7769
38
root 2.89688 17.6242 17.5969 -5.12986 11.0952 0.809237
lowerback 5.2866 -1.48502 -0.490745
upperback 1.42955 -2.05444 -3.02056
thorax -1.58601 -1.02402 -2.69672
lowerneck 1.83156 -1.37894 -1.00902
upperneck 9.46203 -1.88497 0.71294
head 2.69636 -0.94806 0.365434
rclavicle -4.008e-014 -3.81667e-014
rhumerus -14.3593 4.45209 -81.6209
rradius 102.019
rwrist 4.12659
rhand -38.0041 15.9598
rfingers 7.12502
rthumb -11.0433 -13.7297
lclavicle -4.008e-014 -3.81667e-014
lhumerus -41.1127 43.8354 60.8163
lradius 18.809
lwrist -39.1295
lhand -10.7738 -5.79249
lfingers 7.12502
lthumb 15.2384 23.6263
rfemur 6.703 19.7347 20.7538
rtibia 17.6604
rfoot -27.0545 -26.0659
rtoes -11.2598
lfemur 0.462639 -18.209 -21.2615
ltibia 27.0199
lfoot -22.0376 8.31049
ltoes -13.7772
39
root 2.89518 17.6238 17.5963 -5.14312 11.1331 0.819513
lowerback 5.28456 -1.41638 -0.441271
upperback 1.42154 -1.9617 -3.08935
thorax -1.59307 -0.977906 -2.80193
lowerneck 1.84251 -1.44903 -1.01358
upperneck 9.49503 -1.98532 0.797693
head 2.70777 -0.99563 0.391431
rclavicle 4.44719e-014 1.03368e-014
rhumerus -13.0134 4.36067 -81.1808
rradius 101.696
rwrist 4.29175
rhand -37.7708 15.5303
rfingers 7.12502
rthumb -10.8182 -14.171
lclavicle 4.44719e-014 1.03368e-014
lhumerus -41.0722 43.8436 60.7181
lradius 18.7515
lwrist -39.2125
lhand -10.7532 -5.78307
lfingers 7.12502
lthumb 15.2582 23.6342
rfemur 6.71329 19.6572 20.7368
rtibia 17.6656
rfoot -27.0367 -26.031
rtoes -11.269
lfemur 0.473111 -18.2598 -21.2794
ltibia 27.0228
lfoot -22.0353 8.32277
ltoes -13.7763
40
root 2.89313 17.6244 17.5953 -5.15056 11.159 0.819312
lowerback 5.27942 -1.34876 -0.397836
upperback 1.41055 -1.87027 -3.13545
thorax -1.60019 -0.93244 -2.88027
lowerneck 1.86944 -1.51171 -1.05941
upperneck 9.50427 -2.07633 0.893475
head 2.70903 -1.0397 0.428339
rclavicle 1.84808e-014 -3.97569e-015
rhumerus -11.6365 4.27713 -80.7244
rradius 101.339
rwrist 4.46777
rhand -37.424 14.972
rfingers 7.12502
rthumb -10.4837 -14.7465
lclavicle 1.84808e-014 -3.97569e-015
lhumerus -41.0924 43.9395 60.5754
lradius 18.7113
lwrist -39.3932
lhand -10.7393 -5.78336
lfingers 7.12502
lthumb 15.2716 23.6329
rfemur 6.7024 19.5672 20.7166
rtibia 17.6732
rfoot -27.0147 -25.9596
rtoes -11.2362
lfemur 0.466568 -18.2502 -21.2694
ltibia 27.0267
lfoot -22.0204 8.30078
ltoes -13.828
41
root 2.89156 17.6245 17.5947 -5.14927 11.1979 0.819494
lowerback 5.26636 -1.28251 -0.3256
upperback 1.39565 -1.77949 -3.20365
thorax -1.60821 -0.887446 -2.99784
lowerneck 1.88851 -1.57946 -1.06157
upperneck 9.53435 -2.17348 0.975372
head 2.71814 -1.08568 0.453164
rclavicle -7.14382e-015 -1.59028e-015
rhumerus -10.2803 4.16918 -80.2653
rradius 100.953
rwrist 4.59093
rhand -37.0426 14.3337
rfingers 7.12502
rthumb -10.1157 -15.4031
lclavicle -7.14382e-015 -1.59028e-015
lhumerus -41.0588 43.9545 60.4683
lradius 18.664
lwrist -39.4872
lhand -10.7077 -5.7583
lfingers 7.12502
lthumb 15.302 23.6556
rfemur 6.68964 19.4623 20.6954
rtibia 17.6777
rfoot -26.9793 -25.904
rtoes -11.2522
lfemur 0.451963 -18.3048 -21.2706
ltibia 27.0322
lfoot -22.0133 8.31476
ltoes -13.829
42
root 2.88984 17.6241 17.5939 -5.17569 11.2217 0.806944
lowerback 5.28173 -1.21089 -0.2518
upperback 1.38648 -1.68165 -3.25898
thorax -1.62505 -0.838933 -3.10304
lowerneck 1.91626 -1.64575 -1.07399
upperneck 9.55423 -2.2683 1.05341
head 2.72241 -1.13099 0.478652
rclavicle -3.38679e-014 -1.59028e-014
rhumerus -8.90993 4.03746 -79.8271
rradius 100.516
rwrist 4.72667
rhand -36.5547 13.6329
rfingers 7.12502
rthumb -9.64498 -16.1263
lclavicle -3.38679e-014 -1.59028e-014
lhumerus -40.9997 43.9363 60.3959
lradius 18.6012
lwrist -39.5339
lhand -10.6996 -5.72299
lfingers 7.12502
lthumb 15.3098 23.6903
rfemur 6.69495 19.307 20.6794
rtibia 17.6828
rfoot -26.9057 -25.7827
rtoes -11.2667
lfemur 0.469118 -18.3184 -21.2588
ltibia 27.0383
lfoot -22.0011 8.30119
ltoes -13.8317
43
root 2.88735 17.6239 17.5931 -5.17423 11.2522 0.8067
lowerback 5.28066 -1.14132 -0.187384
upperback 1.36266 -1.58735 -3.32589
thorax -1.64761 -0.792329 -3.21499
lowerneck 1.96927 -1.71709 -1.04943
upperneck 9.55416 -2.36799 1.10298
head 2.7145 -1.17837 0.488886
rclavicle 5.07522e-015 -2.62396e-014
rhumerus -7.55645 3.90657 -79.3948
rradius 100.047
rwrist 4.80896
rhand -36.0022 12.9337
rfingers 7.12502
rthumb -9.1119 -16.8494
lclavicle 5.07522e-015 -2.62396e-014
lhumerus -40.9716 43.9071 60.3017
lradius 18.58
lwrist -39.5826
lhand -10.6543 -5.70481
lfingers 7.12502
lthumb 15.3535 23.7052
rfemur 6.67487 19.2119 20.6608
rtibia 17.6889
rfoot -26.8392 -25.7345
rtoes -11.2478
lfemur 0.456517 -18.3561 -21.2526
ltibia 27.044
lfoot -21.998 8.3041
ltoes -13.8315
44
root 2.88495 17.6237 17.592 -5.18819 11.2931 0.816812
lowerback 5.29459 -1.07189 -0.135913
upperback 1.35374 -1.4937 -3.39202
thorax -1.66245 -0.745852 -3.31878
lowerneck 1.96226 -1.78973 -1.05571
upperneck 9.59327 -2.47154 1.1838
head 2.73183 -1.22759 0.51376
rclavicle 8.62228e-015 2.38542e-014
rhumerus -6.17183 3.74995 -78.9423
rradius 99.5092
rwrist 4.88048
rhand -35.4307 12.2174
rfingers 7.12502
rthumb -8.56046 -17.5891
lclavicle 8.62228e-015 2.38542e-014
lhumerus -40.8664 43.8188 60.2925
lradius 18.5443
lwrist -39.5824
lhand -10.6321 -5.68437
lfingers 7.12502
lthumb 15.3749 23.724
rfemur 6.67594 19.1004 20.6361
rtibia 17.6989
rfoot -26.8029 -25.6743
rtoes -11.2645
lfemur 0.460045 -18.3775 -21.2616
ltibia 27.0471
lfoot -21.9832 8.2992
ltoes -13.8824
45
root 2.88278 17.6242 17.5919 -5.1948 11.3234 0.817161
lowerback 5.29127 -0.997435 -0.0686241
upperback 1.34166 -1.39224 -3.45703
thorax -1.67041 -0.69553 -3.43124
lowerneck 1.98425 -1.86206 -1.07542
upperneck 9.60873 -2.57636 1.2867
head 2.73669 -1.27742 0.548271
rclavicle 1.8108e-014 -1.11319e-014
rhumerus -4.76946 3.56932 -78.4798
rradius 98.9284
rwrist 4.89738
rhand -34.7877 11.5031
rfingers 7.12502
rthumb -7.93983 -18.3278
lclavicle 1.8108e-014 -1.11319e-014
lhumerus -40.7398 43.6439 60.3371
lradius 18.547
lwrist -39.4712
lhand -10.5848 -5.66241
lfingers 7.12502
lthumb 15.4204 23.7424
rfemur 6.66164 18.9883 20.6139
rtibia 17.7121
rfoot -26.7591 -25.6063
rtoes -11.2755
lfemur 0.454043 -18.3917 -21.2544
ltibia 27.0494
lfoot -21.9739 8.28102
ltoes -13.8852
